<?xml version="1.0" encoding="utf-8"?>
<!-- Generator: Adobe Illustrator 25.2.0, SVG Export Plug-In . SVG Version: 6.00 Build 0)  -->
<svg version="1.1"
	 id="svg3765" inkscape:version="0.92.2 5c3e80d, 2017-08-06" sodipodi:docname="noun_1067088_cc.svg" xmlns:cc="http://creativecommons.org/ns#" xmlns:dc="http://purl.org/dc/elements/1.1/" xmlns:inkscape="http://www.inkscape.org/namespaces/inkscape" xmlns:rdf="http://www.w3.org/1999/02/22-rdf-syntax-ns#" xmlns:sodipodi="http://sodipodi.sourceforge.net/DTD/sodipodi-0.dtd" xmlns:svg="http://www.w3.org/2000/svg"
	 xmlns="http://www.w3.org/2000/svg" xmlns:xlink="http://www.w3.org/1999/xlink" x="0px" y="0px" viewBox="0 0 100 100"
	 style="enable-background:new 0 0 100 100;" xml:space="preserve">
<sodipodi:namedview  bordercolor="#666666" borderopacity="1" fit-margin-bottom="10" fit-margin-left="10" fit-margin-right="10" fit-margin-top="10" gridtolerance="10" guidetolerance="10" id="namedview3767" inkscape:current-layer="svg3765" inkscape:cx="52.211838" inkscape:cy="85.04081" inkscape:pageopacity="0" inkscape:pageshadow="2" inkscape:window-height="867" inkscape:window-maximized="0" inkscape:window-width="1444" inkscape:window-x="0" inkscape:window-y="0" inkscape:zoom="5.136" objecttolerance="10" pagecolor="#ffffff" showgrid="false">
	</sodipodi:namedview>
<g id="g3759" transform="translate(10,8.825)">
	<path id="path3755" inkscape:connector-curvature="0" d="M80.5,42.8c-0.6-0.2-1.2-0.1-1.6,0.3l-4.1,4l-4-4
		c-0.4-0.4-1.1-0.6-1.6-0.3c-0.6,0.2-0.9,0.8-0.9,1.4c0,8.7-3.4,16.8-9.5,23c-6.1,6.1-14.3,9.5-23,9.5s-16.8-3.4-23-9.5
		c-6.1-6.1-9.5-14.3-9.5-23s3.4-16.8,9.5-23c5.8-5.8,13.4-9.1,21.5-9.5V16c0,0.1,0,0.1,0,0.2c0,0,0,0,0,0.1v0.1
		c0,0.1,0.1,0.3,0.2,0.4c0.3,0.4,0.8,0.7,1.3,0.7c0.3,0,0.6-0.1,0.8-0.2l17.3-11C54.3,6,54.6,5.5,54.6,5s-0.3-1-0.7-1.3l-17.3-11
		c-0.5-0.3-1-0.3-1.5,0C34.6-7,34.3-6.5,34.3-6v4.4C22.6-1.2,11.7,3.5,3.5,11.8C-5.2,20.5-10,32-10,44.2s4.8,23.7,13.4,32.3
		s20.1,13.4,32.3,13.4S59.4,85.1,68,76.5s13.4-20.1,13.4-32.3C81.4,43.6,81.1,43.1,80.5,42.8z M65.9,74.4
		c-8.1,8.1-18.8,12.5-30.2,12.5S13.6,82.5,5.5,74.4C-2.6,66.4-7,55.6-7,44.2S-2.6,22.1,5.5,14S24.3,1.5,35.7,1.5l0,0
		c0.8,0,1.5-0.7,1.5-1.5v-3.1l13,8.2l-13,8.3v-3.1c0-0.8-0.7-1.5-1.5-1.5c-9.5,0-18.4,3.7-25.1,10.4S0.2,34.8,0.2,44.3
		s3.7,18.4,10.4,25.1s15.6,10.4,25.1,10.4s18.4-3.7,25.1-10.4C66.7,63.5,70.2,56,71,47.8l2.6,2.7c0.6,0.6,1.5,0.6,2.1,0l2.5-2.4
		C77.4,58,73.1,67.2,65.9,74.4z"/>
	<path id="path3757" inkscape:connector-curvature="0" d="M88.9,3.6C88,2,86.5,0.1,84.7-1.7c-1.8-1.8-3.6-3.3-5.3-4.2
		c-2.2-1.3-3.8-1.4-4.8-0.4l0,0l-7.8,7.8l0,0l0,0l-3.4,3.4l0,0l0,0l-36,36c-0.1,0.1-0.1,0.1-0.1,0.2c-0.1,0.1-0.2,0.2-0.3,0.2
		c0,0,0,0.1-0.1,0.1c-0.2,0.2-0.4,0.4-0.5,0.7l-6.5,19c-0.2,0.5,0,1.1,0.4,1.5c0.3,0.3,0.7,0.4,1.1,0.4c0.2,0,0.3,0,0.5-0.1
		l18.8-6.1c0.3-0.1,0.6-0.3,0.8-0.6c0.1-0.1,0.2-0.1,0.3-0.2s0.1-0.2,0.2-0.2c0.1-0.1,0.2-0.1,0.2-0.1l36-36l0,0l0,0l3.4-3.4l0,0
		l0,0l7.8-7.8l0,0l0,0C90.3,7.4,90.2,5.8,88.9,3.6z M40,53.6c0,0-0.1,0.1-0.1,0.2c-0.7-0.1-2.7-1.2-5.2-3.5L69,16
		c1.2,1.1,3.1,2.7,5,3.7L40,53.6z M29.5,43.1l34-34c0.8,1.7,2.3,3.4,3.3,4.6L32.5,48c-2.1-2.3-3.1-4.2-3.2-4.8
		C29.4,43.2,29.5,43.1,29.5,43.1z M76.2,17.3c-0.8-0.2-3.2-1.5-6.1-4.4s-4.2-5.3-4.4-6.1l1.1-1.1c0.1,0.2,0.2,0.4,0.3,0.7
		c0.9,1.6,2.4,3.5,4.2,5.3c1.8,1.8,3.6,3.3,5.3,4.2c0.2,0.1,0.4,0.2,0.7,0.3L76.2,17.3z M79.6,13.9c-0.8-0.2-3.2-1.5-6.1-4.4
		s-4.2-5.3-4.4-6.1l5.5-5.5c0.1,0.2,0.2,0.4,0.3,0.7c0.9,1.6,2.4,3.5,4.2,5.3c0.8,0.8,3.4,3.3,5.9,4.5L79.6,13.9z M82.6,0.5
		c2.3,2.3,3.6,4.2,4.1,5.4c-1.1-0.5-3.1-1.8-5.4-4.1c-2.3-2.3-3.6-4.2-4.1-5.4C78.4-3.1,80.4-1.8,82.6,0.5z M28,47
		c1.3,2,3.1,3.8,3.7,4.4c1.5,1.5,3.1,2.8,4.6,3.8l-12.4,4L28,47z"/>
</g>
</svg>
